<?xml version="1.0" encoding="UTF-8"?>
<svg version="1.1" xmlns="http://www.w3.org/2000/svg" width="48" height="48">
<path d="M0 0 C6.0631555 5.293231 8.4383373 11.58693595 9.4375 19.4375 C8.57838169 26.43317763 6.44769348 32.10629317 1.1875 36.9375 C-4.67488767 41.51512868 -9.99905452 43.62247517 -17.44921875 43.33984375 C-24.88197093 42.34956896 -29.92862475 38.94151424 -34.55859375 33.140625 C-38.30000288 27.58427756 -40.07077886 21.73236824 -39 15 C-37.08673144 7.35895888 -33.65075008 2.26451293 -27 -2 C-18.13017126 -6.61870361 -8.15607983 -5.77064573 0 0 Z " fill="#E5EFEA" transform="translate(39,5)"/>
<path d="M0 0 C4.58710448 2.31340983 7.1803706 5.61658399 8.8671875 10.34765625 C9.71381512 16.16822116 8.22316107 20.62671483 4.8671875 25.34765625 C0.05193658 29.1802029 -3.87587305 30.73468811 -10.078125 30.62109375 C-14.86827873 29.98362082 -18.01684069 26.76658083 -21.0078125 23.22265625 C-23.44227785 19.51941416 -23.91252251 16.24038515 -23.69140625 11.8515625 C-22.58434208 6.88912799 -19.53061277 2.87944515 -15.26171875 0.15234375 C-10.50632297 -1.6451086 -4.83400736 -1.47853339 0 0 Z " fill="#0E7042" transform="translate(31.1328125,9.65234375)"/>
<path d="M0 0 C2.2041312 2.19471184 4.14826125 4.50295835 6 7 C5.67 7.66 5.34 8.32 5 9 C4.34 8.67 3.68 8.34 3 8 C3.495 10.475 3.495 10.475 4 13 C3.01 13.33 2.02 13.66 1 14 C1 12.35 1 10.7 1 9 C0.401875 8.71125 -0.19625 8.4225 -0.8125 8.125 C-3 7 -3 7 -6 5 C-6 4.34 -6 3.68 -6 3 C-11.61 2.67 -17.22 2.34 -23 2 C-23 2.66 -23 3.32 -23 4 C-24.65 4.66 -26.3 5.32 -28 6 C-28 6.66 -28 7.32 -28 8 C-28.66 8 -29.32 8 -30 8 C-30.33 8.99 -30.66 9.98 -31 11 C-32.98 11 -34.96 11 -37 11 C-35.76894033 4.69081918 -32.11270333 1.49353395 -27 -2 C-18.22047678 -6.61831293 -8.05562647 -5.81795245 0 0 Z " fill="#A5C5B5" transform="translate(39,5)"/>
<path d="M0 0 C0.66 0 1.32 0 2 0 C3.125 6.75 3.125 6.75 2 9 C2.99 9 3.98 9 5 9 C5 7.68 5 6.36 5 5 C7.64 4.67 10.28 4.34 13 4 C13 4.66 13 5.32 13 6 C11.35 6.66 9.7 7.32 8 8 C8.33 9.65 8.66 11.3 9 13 C7.35 13.33 5.7 13.66 4 14 C3.93941406 14.62648438 3.87882812 15.25296875 3.81640625 15.8984375 C3.73261719 16.71570313 3.64882813 17.53296875 3.5625 18.375 C3.48128906 19.18710937 3.40007813 19.99921875 3.31640625 20.8359375 C3 23 3 23 2 25 C1.34 25 0.68 25 0 25 C-1.80230168 21.17010894 -2.19622241 18.21878192 -2 14 C-2.598125 13.95875 -3.19625 13.9175 -3.8125 13.875 C-7.09750076 12.5609997 -7.57319593 10.11302707 -9 7 C-9.66 6.67 -10.32 6.34 -11 6 C-11 5.34 -11 4.68 -11 4 C-8.36 4.33 -5.72 4.66 -3 5 C-3 6.32 -3 7.64 -3 9 C-2.01 9 -1.02 9 0 9 C-0.33 8.34 -0.66 7.68 -1 7 C-1.125 3.9375 -1.125 3.9375 -1 1 C-0.67 0.67 -0.34 0.34 0 0 Z " fill="#D0E3DA" transform="translate(23,13)"/>
<path d="M0 0 C3.36753602 1.7969625 5.61268567 3.55804292 6.796875 7.2421875 C3.32362319 8.3999381 0.43620052 8.31085402 -3.203125 8.2421875 C-3.203125 9.5621875 -3.203125 10.8821875 -3.203125 12.2421875 C-4.193125 12.2421875 -5.183125 12.2421875 -6.203125 12.2421875 C-6.203125 9.2721875 -6.203125 6.3021875 -6.203125 3.2421875 C-7.193125 3.7371875 -7.193125 3.7371875 -8.203125 4.2421875 C-8.203125 6.8821875 -8.203125 9.5221875 -8.203125 12.2421875 C-9.193125 12.2421875 -10.183125 12.2421875 -11.203125 12.2421875 C-11.203125 10.9221875 -11.203125 9.6021875 -11.203125 8.2421875 C-14.173125 8.2421875 -17.143125 8.2421875 -20.203125 8.2421875 C-20.533125 7.5821875 -20.863125 6.9221875 -21.203125 6.2421875 C-15.8222387 -1.0604439 -8.80348105 -3.02814774 0 0 Z " fill="#1A774C" transform="translate(31.203125,9.7578125)"/>
<path d="M0 0 C1.65 0.66 3.3 1.32 5 2 C5 3.65 5 5.3 5 7 C5.66 6.67 6.32 6.34 7 6 C7 4.35 7 2.7 7 1 C7.99 1.33 8.98 1.66 10 2 C11.36481494 5.35649255 11.20113409 8.98307226 11.25 12.5625 C11.27578125 13.69816406 11.3015625 14.83382813 11.328125 16.00390625 C11 19 11 19 9.484375 20.90234375 C8.99453125 21.26457031 8.5046875 21.62679687 8 22 C8.33 20.02 8.66 18.04 9 16 C8.01 16 7.02 16 6 16 C5.67 17.32 5.34 18.64 5 20 C5.66 20.33 6.32 20.66 7 21 C6.01 21.33 5.02 21.66 4 22 C1.70986347 25.4352048 1.82157027 26.985331 2 31 C1.34 31 0.68 31 0 31 C0 30.34 0 29.68 0 29 C-3.11785113 29.64644661 -3.11785113 29.64644661 -4 32 C-4.33 31.67 -4.66 31.34 -5 31 C-6.34747084 30.76924918 -7.70377565 30.58846937 -9.0625 30.4375 C-10.361875 30.293125 -11.66125 30.14875 -13 30 C-12.67 30.66 -12.34 31.32 -12 32 C-8.97065509 32.65772428 -8.97065509 32.65772428 -6 33 C-6 33.33 -6 33.66 -6 34 C-7.60379341 34.05416188 -9.20811406 34.09286638 -10.8125 34.125 C-11.70582031 34.14820313 -12.59914063 34.17140625 -13.51953125 34.1953125 C-16 34 -16 34 -19 32 C-18.360625 31.87625 -17.72125 31.7525 -17.0625 31.625 C-16.381875 31.41875 -15.70125 31.2125 -15 31 C-14.67 30.34 -14.34 29.68 -14 29 C-14.66 28.67 -15.32 28.34 -16 28 C-14.91332031 27.85304688 -14.91332031 27.85304688 -13.8046875 27.703125 C-8.04474342 26.81225365 -3.41448794 26.08340135 1 22 C3.69375561 17.24103175 4.66732206 13.43390817 4 8 C2.86523726 5.20976088 1.51386272 2.60195155 0 0 Z " fill="#E7F1EC" transform="translate(35,12)"/>
<path d="M0 0 C3.03498744 3.03498744 2.90345375 6.01522829 3.3125 10.1875 C2.72893158 17.30703469 0.50612988 23.05262246 -4.8125 27.9375 C-10.76388576 32.58462258 -16.02433304 34.51194496 -23.5546875 34.3046875 C-27.14158733 33.85775749 -29.80600566 32.66643183 -33 31 C-29.7169902 29.3584951 -26.57454967 30.48111376 -23 31 C-23 30.01 -23 29.02 -23 28 C-21.700625 28.020625 -20.40125 28.04125 -19.0625 28.0625 C-17.70834367 28.08399454 -16.35243917 28.07148199 -15 28 C-14.67 27.67 -14.34 27.34 -14 27 C-13.34 26.67 -12.68 26.34 -12 26 C-11.34 26.33 -10.68 26.66 -10 27 C-10 27.66 -10 28.32 -10 29 C-9.34 29 -8.68 29 -8 29 C-8.2475 28.113125 -8.495 27.22625 -8.75 26.3125 C-9 23 -9 23 -7.125 20.375 C-6.073125 19.199375 -6.073125 19.199375 -5 18 C-4.22166466 15.81785432 -4.22166466 15.81785432 -4 14 C-3.01 14 -2.02 14 -1 14 C-1 15.65 -1 17.3 -1 19 C0.65497356 15.69005287 0.10084335 12.00877 0.0625 8.375 C0.05798828 7.57320312 0.05347656 6.77140625 0.04882812 5.9453125 C0.03703168 3.96350994 0.01909605 1.98174567 0 0 Z " fill="#73A48B" transform="translate(45,14)"/>
<path d="M0 0 C0.33 0 0.66 0 1 0 C1.33 1.98 1.66 3.96 2 6 C2.99 6 3.98 6 5 6 C4.67 7.65 4.34 9.3 4 11 C4.66 11.33 5.32 11.66 6 12 C6.9296875 13.7421875 6.9296875 13.7421875 7.875 15.875 C9.43944094 19.15679717 10.75970097 21.14840055 14 23 C13.67 23.99 13.34 24.98 13 26 C12.67 25.34 12.34 24.68 12 24 C11.34 24 10.68 24 10 24 C9.67 23.34 9.34 22.68 9 22 C8.34 22.33 7.68 22.66 7 23 C8.32 24.65 9.64 26.3 11 28 C6.22269094 26.23062627 3.30327071 22.50310723 1.015625 18.109375 C-1.44468125 12.21392418 -2.0597298 6.1791894 0 0 Z " fill="#8AB5A0" transform="translate(1,16)"/>
<path d="M0 0 C4.05606165 0.46800711 7.46588679 0.87953208 11 3 C11 3.66 11 4.32 11 5 C12.32 5 13.64 5 15 5 C14.01 3.68 13.02 2.36 12 1 C15.7952131 2.49097658 17.61042731 4.75700849 20 8 C19.67 8.66 19.34 9.32 19 10 C18.34 9.67 17.68 9.34 17 9 C17.33 10.65 17.66 12.3 18 14 C17.01 14.33 16.02 14.66 15 15 C15 13.35 15 11.7 15 10 C14.1028125 9.566875 14.1028125 9.566875 13.1875 9.125 C11 8 11 8 8 6 C8 5.34 8 4.68 8 4 C7.05125 3.855625 6.1025 3.71125 5.125 3.5625 C2 3 2 3 0 2 C0 1.34 0 0.68 0 0 Z " fill="#7EAF96" transform="translate(25,4)"/>
<path d="M0 0 C0.66 0 1.32 0 2 0 C2.598125 0.928125 3.19625 1.85625 3.8125 2.8125 C6.02761293 6.04023598 7.65800576 7.14333654 11 9 C11 9.66 11 10.32 11 11 C11.66 11 12.32 11 13 11 C12.67 11.99 12.34 12.98 12 14 C9.4375 14.875 9.4375 14.875 6 15 C3.3682085 13.29275002 1.19084734 11.23621992 -1 9 C-0.67 8.34 -0.34 7.68 0 7 C0.99 7.33 1.98 7.66 3 8 C3 8.66 3 9.32 3 10 C3.99 10.33 4.98 10.66 6 11 C6.33 10.34 6.66 9.68 7 9 C6.401875 8.7525 5.80375 8.505 5.1875 8.25 C2.66413131 6.80807503 1.49969924 5.47450374 0 3 C0 2.01 0 1.02 0 0 Z " fill="#D2E4DC" transform="translate(8,30)"/>
<path d="M0 0 C4.76711817 1.48782669 8.46001733 3.55503033 11 8 C8.525 7.505 8.525 7.505 6 7 C6 6.34 6 5.68 6 5 C-1.72659569 2.95418743 -9.14705119 1.97343257 -17 4 C-12.32316393 -1.34495551 -6.56436403 -0.85030622 0 0 Z " fill="#E6F0EC" transform="translate(30,2)"/>
<path d="M0 0 C3.69896142 0.49985965 5.68865166 1.01199605 8 4 C8.328125 6.19140625 8.328125 6.19140625 8.25 8.5625 C8.23453125 9.34753906 8.2190625 10.13257813 8.203125 10.94140625 C8 13 8 13 7 15 C6.34 15 5.68 15 5 15 C3.19769832 11.17010894 2.80377759 8.21878192 3 4 C1.68 3.67 0.36 3.34 -1 3 C-0.67 2.01 -0.34 1.02 0 0 Z " fill="#97C2AE" transform="translate(18,23)"/>
<path d="M0 0 C2.31 0.33 4.62 0.66 7 1 C7 5.29 7 9.58 7 14 C6.01 14.495 6.01 14.495 5 15 C5 14.01 5 13.02 5 12 C4.01 11.67 3.02 11.34 2 11 C2.66 10.67 3.32 10.34 4 10 C3.34 8.68 2.68 7.36 2 6 C1.34 6.99 0.68 7.98 0 9 C0 6.03 0 3.06 0 0 Z " fill="#F4F8F7" transform="translate(2,16)"/>
<path d="M0 0 C-0.99 0.495 -0.99 0.495 -2 1 C-2.73992188 0.69578125 -3.47984375 0.3915625 -4.2421875 0.078125 C-7.38290529 -1.14969102 -9.76413505 -1.26684644 -13.125 -1.25 C-14.15882812 -1.25515625 -15.19265625 -1.2603125 -16.2578125 -1.265625 C-19.21607277 -1.19676382 -19.21607277 -1.19676382 -22 1 C-24.1875 0.625 -24.1875 0.625 -26 0 C-17.06529972 -4.67041151 -8.98060909 -5.43563182 0 0 Z " fill="#488161" transform="translate(37,4)"/>
<path d="M0 0 C-0.66 1.32 -1.32 2.64 -2 4 C-2.66 4 -3.32 4 -4 4 C-4 4.66 -4 5.32 -4 6 C-4.66 6 -5.32 6 -6 6 C-6.33 6.99 -6.66 7.98 -7 9 C-8.98 9 -10.96 9 -13 9 C-12.34 7.68 -11.68 6.36 -11 5 C-11 5.66 -11 6.32 -11 7 C-10.37351562 6.4946875 -9.74703125 5.989375 -9.1015625 5.46875 C-8.28429687 4.8190625 -7.46703125 4.169375 -6.625 3.5 C-5.40683594 2.52546875 -5.40683594 2.52546875 -4.1640625 1.53125 C-2 0 -2 0 0 0 Z " fill="#72AB90" transform="translate(15,7)"/>
<path d="M0 0 C3.63 0 7.26 0 11 0 C7.77208445 2.1519437 6.71599191 2.20086443 3 2 C3.33 2.66 3.66 3.32 4 4 C7.02934491 4.65772428 7.02934491 4.65772428 10 5 C10 5.33 10 5.66 10 6 C8.39620659 6.05416188 6.79188594 6.09286638 5.1875 6.125 C4.29417969 6.14820313 3.40085937 6.17140625 2.48046875 6.1953125 C0 6 0 6 -3 4 C-2.360625 3.87625 -1.72125 3.7525 -1.0625 3.625 C-0.0415625 3.315625 -0.0415625 3.315625 1 3 C1.33 2.34 1.66 1.68 2 1 C1.34 0.67 0.68 0.34 0 0 Z " fill="#F6FAF8" transform="translate(19,40)"/>
<path d="M0 0 C0.33 0.66 0.66 1.32 1 2 C-0.65 2.66 -2.3 3.32 -4 4 C-3.67 5.65 -3.34 7.3 -3 9 C-6.13349732 10.04449911 -6.98968256 9.93423645 -10 9 C-10 8.34 -10 7.68 -10 7 C-8.68 6.67 -7.36 6.34 -6 6 C-5.938125 5.38125 -5.87625 4.7625 -5.8125 4.125 C-5 2 -5 2 -2.4375 0.75 C-1.633125 0.5025 -0.82875 0.255 0 0 Z " fill="#99C2AF" transform="translate(35,17)"/>
<path d="M0 0 C0 0.66 0 1.32 0 2 C0.66 2.33 1.32 2.66 2 3 C-1.63 3 -5.26 3 -9 3 C-9.33 3.66 -9.66 4.32 -10 5 C-10 4.34 -10 3.68 -10 3 C-10.66 2.67 -11.32 2.34 -12 2 C-7.8794254 0.00214565 -4.54805635 -0.17835515 0 0 Z " fill="#96C1AD" transform="translate(25,4)"/>
<path d="M0 0 C1.485 0.99 1.485 0.99 3 2 C3.25660094 5.07921132 3.39431504 7.21136993 2 10 C1.34 10 0.68 10 0 10 C-0.74926071 6.33694766 -1.2380014 3.57644848 0 0 Z " fill="#BFD9CD" transform="translate(23,28)"/>
<path d="M0 0 C0 0.66 0 1.32 0 2 C0.99 2.33 1.98 2.66 3 3 C2.34 3.66 1.68 4.32 1 5 C0.360625 4.525625 -0.27875 4.05125 -0.9375 3.5625 C-4.92181519 1.52968613 -8.58494074 1.2789471 -13 1 C-13 0.67 -13 0.34 -13 0 C-4.57142857 -1.28571429 -4.57142857 -1.28571429 0 0 Z " fill="#BAD6C9" transform="translate(33,8)"/>
<path d="M0 0 C6.625 0.75 6.625 0.75 10 3 C10 3.99 10 4.98 10 6 C9.34 6 8.68 6 8 6 C8 5.34 8 4.68 8 4 C7.05125 3.855625 6.1025 3.71125 5.125 3.5625 C2 3 2 3 0 2 C0 1.34 0 0.68 0 0 Z " fill="#69A68A" transform="translate(25,4)"/>
<path d="M0 0 C0.99 0 1.98 0 3 0 C3 2.64 3 5.28 3 8 C0.525 7.01 0.525 7.01 -2 6 C-1.34 4.02 -0.68 2.04 0 0 Z " fill="#AECFBF" transform="translate(41,28)"/>
<path d="M0 0 C-1 2 -1 2 -3 5 C-5 3.625 -5 3.625 -7 2 C-7 1.34 -7 0.68 -7 0 C-3.86650268 -1.04449911 -3.01031744 -0.93423645 0 0 Z " fill="#C4DCD1" transform="translate(34,39)"/>
<path d="M0 0 C1.32 0.33 2.64 0.66 4 1 C3.34 1 2.68 1 2 1 C1.67 2.65 1.34 4.3 1 6 C-0.32 6 -1.64 6 -3 6 C-3 5.34 -3 4.68 -3 4 C-2.01 4 -1.02 4 0 4 C0 2.68 0 1.36 0 0 Z " fill="#D0E3DA" transform="translate(28,18)"/>
<path d="M0 0 C0.99 0.33 1.98 0.66 3 1 C3 1.66 3 2.32 3 3 C3.66 3 4.32 3 5 3 C4.67 3.99 4.34 4.98 4 6 C2.35 4.35 0.7 2.7 -1 1 C-0.67 0.67 -0.34 0.34 0 0 Z " fill="#E0ECE6" transform="translate(8,37)"/>
</svg>
